<?xml version="1.0" encoding="utf-8"?>
<!-- Generator: Adobe Illustrator 23.0.3, SVG Export Plug-In . SVG Version: 6.00 Build 0)  -->
<svg version="1.1" id="Layer_1" xmlns="http://www.w3.org/2000/svg" xmlns:xlink="http://www.w3.org/1999/xlink" x="0px" y="0px"
	 viewBox="0 0 876.02 659.62" style="enable-background:new 0 0 876.02 659.62;" xml:space="preserve">
<style type="text/css">
	.st0{opacity:0.2;}
	.st1{fill:#FCEE21;}
</style>
<g class="st0">
	<path class="st1" d="M393.75,659.62c-1.21,0-3.64,0-4.86-1.21c-7.29-2.43-12.14-8.5-13.36-15.79l-27.93-313.3l-40.07,21.86
		c-6.07,3.64-13.36,2.43-19.43-1.21L7.59,153.24c-6.07-4.86-8.5-12.14-7.29-19.43c1.21-7.29,7.29-13.36,15.79-13.36L855.21,0.23
		c7.29-1.21,14.57,2.43,18.22,8.5c3.64,6.07,3.64,14.57-1.21,20.64L408.32,652.34C405.9,657.2,399.82,659.62,393.75,659.62z
		 M381.61,303.82l25.5,289.02l383.73-516.1L381.61,303.82z M67.09,149.6l227.08,160.29L762.91,50.02L67.09,149.6z"/>
</g>
</svg>
